<svg xmlns="http://www.w3.org/2000/svg" xmlns:xlink="http://www.w3.org/1999/xlink" width="100" zoomAndPan="magnify" viewBox="0 0 75 74.999997" height="100" preserveAspectRatio="xMidYMid meet" version="1.0"><defs><clipPath id="a4c5af1ef1"><path d="M 16.097656 38 L 31 38 L 31 47 L 16.097656 47 Z M 16.097656 38 " clip-rule="nonzero"/></clipPath><clipPath id="3b5b1c1633"><path d="M 16.097656 27 L 32 27 L 32 37 L 16.097656 37 Z M 16.097656 27 " clip-rule="nonzero"/></clipPath><clipPath id="eb1ec1a335"><path d="M 32 24 L 58.847656 24 L 58.847656 57.710938 L 32 57.710938 Z M 32 24 " clip-rule="nonzero"/></clipPath><clipPath id="f0ef75789f"><path d="M 16.097656 17.210938 L 46 17.210938 L 46 27 L 16.097656 27 Z M 16.097656 17.210938 " clip-rule="nonzero"/></clipPath></defs><g clip-path="url(#a4c5af1ef1)"><path fill="#bebdbd" d="M 30.476562 46.941406 L 30.476562 44.808594 C 30.476562 44.785156 30.476562 44.757812 30.476562 44.734375 C 30.476562 44.707031 30.476562 44.675781 30.476562 44.648438 L 30.476562 38.066406 L 17.53125 38.066406 C 16.738281 38.066406 16.097656 38.707031 16.097656 39.496094 L 16.097656 46.65625 C 16.097656 46.8125 16.226562 46.941406 16.386719 46.941406 Z M 24.488281 41.023438 C 25.296875 41.023438 25.953125 41.679688 25.953125 42.488281 C 25.953125 43.296875 25.296875 43.953125 24.488281 43.953125 C 23.679688 43.953125 23.023438 43.296875 23.023438 42.488281 C 23.023438 41.679688 23.679688 41.023438 24.488281 41.023438 Z M 20.238281 41.023438 C 21.046875 41.023438 21.703125 41.679688 21.703125 42.488281 C 21.703125 43.296875 21.046875 43.953125 20.238281 43.953125 C 19.425781 43.953125 18.769531 43.296875 18.769531 42.488281 C 18.769531 41.679688 19.425781 41.023438 20.238281 41.023438 Z M 20.238281 41.023438 " fill-opacity="1" fill-rule="nonzero"/></g><g clip-path="url(#3b5b1c1633)"><path fill="#bebdbd" d="M 17.53125 27.640625 C 16.738281 27.640625 16.097656 28.28125 16.097656 29.070312 L 16.097656 36.230469 C 16.097656 36.390625 16.226562 36.519531 16.386719 36.519531 L 30.476562 36.519531 L 30.476562 30.375 C 30.476562 30.351562 30.476562 30.328125 30.476562 30.304688 C 30.476562 30.273438 30.476562 30.246094 30.476562 30.21875 C 30.476562 29.328125 30.71875 28.449219 31.171875 27.640625 Z M 20.238281 33.53125 C 19.425781 33.53125 18.769531 32.875 18.769531 32.066406 C 18.769531 31.253906 19.425781 30.601562 20.238281 30.601562 C 21.046875 30.601562 21.703125 31.253906 21.703125 32.066406 C 21.703125 32.875 21.046875 33.53125 20.238281 33.53125 Z M 24.488281 33.53125 C 23.679688 33.53125 23.023438 32.875 23.023438 32.066406 C 23.023438 31.253906 23.679688 30.601562 24.488281 30.601562 C 25.296875 30.601562 25.953125 31.253906 25.953125 32.066406 C 25.953125 32.875 25.296875 33.53125 24.488281 33.53125 Z M 24.488281 33.53125 " fill-opacity="1" fill-rule="nonzero"/></g><g clip-path="url(#eb1ec1a335)"><path fill="#bebdbd" d="M 33.96875 54.699219 C 34.675781 55.335938 35.65625 55.898438 36.886719 56.367188 C 39.28125 57.277344 42.4375 57.78125 45.78125 57.78125 C 49.121094 57.78125 52.277344 57.277344 54.671875 56.367188 C 55.902344 55.898438 56.882812 55.335938 57.589844 54.699219 C 58.667969 53.726562 58.894531 52.75 58.894531 52.101562 L 58.894531 44.808594 C 58.894531 44.785156 58.894531 44.765625 58.894531 44.746094 C 58.894531 44.714844 58.894531 44.679688 58.894531 44.648438 L 58.894531 30.375 C 58.894531 30.355469 58.894531 30.335938 58.894531 30.316406 C 58.894531 30.28125 58.894531 30.25 58.894531 30.21875 C 58.894531 29.570312 58.667969 28.59375 57.589844 27.621094 C 56.882812 26.984375 55.902344 26.425781 54.671875 25.953125 C 52.277344 25.042969 49.121094 24.539062 45.78125 24.539062 C 42.4375 24.539062 39.28125 25.042969 36.886719 25.953125 C 35.65625 26.425781 34.675781 26.984375 33.96875 27.621094 C 32.890625 28.59375 32.664062 29.570312 32.664062 30.21875 C 32.664062 30.25 32.664062 30.28125 32.664062 30.316406 C 32.664062 30.335938 32.664062 30.355469 32.664062 30.375 L 32.664062 44.648438 C 32.664062 44.679688 32.664062 44.714844 32.664062 44.746094 C 32.664062 44.765625 32.664062 44.785156 32.664062 44.808594 L 32.664062 52.101562 C 32.664062 52.75 32.890625 53.726562 33.96875 54.699219 Z M 37.667969 27.996094 C 39.816406 27.175781 42.699219 26.726562 45.78125 26.726562 C 48.859375 26.726562 51.742188 27.175781 53.890625 27.996094 C 55.601562 28.652344 56.710938 29.523438 56.710938 30.21875 C 56.710938 30.914062 55.601562 31.789062 53.890625 32.441406 C 51.742188 33.261719 48.859375 33.710938 45.78125 33.710938 C 42.699219 33.710938 39.816406 33.261719 37.667969 32.441406 C 35.957031 31.789062 34.847656 30.914062 34.847656 30.21875 C 34.847656 29.523438 35.957031 28.652344 37.667969 27.996094 Z M 34.847656 37.355469 L 34.847656 33.480469 C 35.425781 33.847656 36.105469 34.183594 36.886719 34.484375 C 39.28125 35.394531 42.4375 35.898438 45.78125 35.898438 C 49.121094 35.898438 52.277344 35.394531 54.671875 34.484375 C 55.453125 34.183594 56.136719 33.847656 56.710938 33.480469 L 56.710938 37.671875 C 56.710938 38.367188 55.601562 39.238281 53.890625 39.894531 C 51.742188 40.710938 48.859375 41.164062 45.78125 41.164062 C 42.699219 41.164062 39.816406 40.710938 37.667969 39.894531 C 35.957031 39.238281 34.847656 38.367188 34.847656 37.671875 Z M 34.847656 40.933594 C 35.425781 41.300781 36.105469 41.636719 36.886719 41.9375 C 39.28125 42.847656 42.4375 43.351562 45.78125 43.351562 C 49.121094 43.351562 52.277344 42.847656 54.671875 41.9375 C 55.453125 41.636719 56.136719 41.300781 56.710938 40.933594 L 56.710938 44.648438 C 56.710938 45.347656 55.601562 46.21875 53.890625 46.871094 C 51.742188 47.691406 48.859375 48.140625 45.78125 48.140625 C 42.699219 48.140625 39.816406 47.691406 37.667969 46.871094 C 35.957031 46.21875 34.847656 45.347656 34.847656 44.648438 Z M 34.847656 47.910156 C 35.425781 48.28125 36.105469 48.617188 36.886719 48.914062 C 39.28125 49.828125 42.4375 50.328125 45.78125 50.328125 C 49.121094 50.328125 52.277344 49.828125 54.671875 48.914062 C 55.453125 48.617188 56.136719 48.28125 56.710938 47.910156 L 56.710938 52.101562 C 56.710938 52.796875 55.601562 53.671875 53.890625 54.324219 C 51.742188 55.144531 48.859375 55.59375 45.78125 55.59375 C 42.699219 55.59375 39.816406 55.144531 37.667969 54.324219 C 35.957031 53.671875 34.847656 52.796875 34.847656 52.101562 Z M 34.847656 47.910156 " fill-opacity="1" fill-rule="nonzero"/></g><g clip-path="url(#f0ef75789f)"><path fill="#bebdbd" d="M 33.367188 24.542969 C 33.207031 24.542969 33.078125 24.414062 33.078125 24.253906 L 33.078125 19.542969 C 33.078125 19.382812 33.207031 19.253906 33.367188 19.253906 L 43.824219 19.253906 C 43.984375 19.253906 44.113281 19.382812 44.113281 19.542969 L 44.113281 22.394531 C 44.664062 22.367188 45.21875 22.351562 45.78125 22.351562 L 45.78125 18.648438 C 45.78125 17.855469 45.136719 17.214844 44.347656 17.214844 L 17.53125 17.214844 C 16.738281 17.214844 16.097656 17.855469 16.097656 18.648438 L 16.097656 25.808594 C 16.097656 25.964844 16.226562 26.09375 16.386719 26.09375 L 32.402344 26.09375 C 32.433594 26.0625 32.46875 26.03125 32.503906 26 C 33.101562 25.460938 33.828125 24.972656 34.679688 24.542969 Z M 20.238281 23.105469 C 19.425781 23.105469 18.769531 22.449219 18.769531 21.640625 C 18.769531 20.832031 19.425781 20.175781 20.238281 20.175781 C 21.046875 20.175781 21.703125 20.832031 21.703125 21.640625 C 21.703125 22.449219 21.046875 23.105469 20.238281 23.105469 Z M 24.488281 23.105469 C 23.679688 23.105469 23.023438 22.449219 23.023438 21.640625 C 23.023438 20.832031 23.679688 20.175781 24.488281 20.175781 C 25.296875 20.175781 25.953125 20.832031 25.953125 21.640625 C 25.953125 22.449219 25.296875 23.105469 24.488281 23.105469 Z M 24.488281 23.105469 " fill-opacity="1" fill-rule="nonzero"/></g></svg>