<svg xmlns="http://www.w3.org/2000/svg" xmlns:xlink="http://www.w3.org/1999/xlink" width="100" zoomAndPan="magnify" viewBox="0 0 75 74.999997" height="100" preserveAspectRatio="xMidYMid meet" version="1.0"><defs><clipPath id="3913e8a7de"><path d="M 5.023438 19.433594 L 70 19.433594 L 70 55.433594 L 5.023438 55.433594 Z M 5.023438 19.433594 " clip-rule="nonzero"/></clipPath></defs><path fill="#bebdbd" d="M 37.496094 31.546875 C 34.214844 31.546875 31.546875 34.21875 31.546875 37.496094 C 31.546875 40.78125 34.214844 43.453125 37.496094 43.453125 C 40.777344 43.453125 43.449219 40.78125 43.449219 37.496094 C 43.449219 34.21875 40.777344 31.546875 37.496094 31.546875 " fill-opacity="1" fill-rule="nonzero"/><g clip-path="url(#3913e8a7de)"><path fill="#bebdbd" d="M 65.894531 37.875 C 65.476562 38.347656 57.480469 47.238281 46.585938 50.914062 C 50.792969 48.007812 53.554688 43.15625 53.554688 37.667969 C 53.554688 31.730469 50.320312 26.535156 45.523438 23.746094 C 56.960938 27.179688 65.460938 36.636719 65.894531 37.125 L 66.226562 37.5 Z M 9.097656 37.875 L 8.765625 37.5 L 9.09375 37.128906 C 9.527344 36.644531 18.007812 27.292969 29.308594 23.808594 C 24.566406 26.609375 21.378906 31.773438 21.378906 37.667969 C 21.378906 43.125 24.109375 47.953125 28.277344 50.863281 C 17.464844 47.15625 9.515625 38.34375 9.097656 37.875 Z M 37.46875 50.675781 C 30.292969 50.675781 24.460938 44.839844 24.460938 37.667969 C 24.460938 30.496094 30.292969 24.660156 37.46875 24.660156 C 44.640625 24.660156 50.476562 30.496094 50.476562 37.667969 C 50.476562 44.839844 44.640625 50.675781 37.46875 50.675781 Z M 69.4375 36.476562 L 68.199219 35.082031 C 67.632812 34.441406 54.136719 19.4375 37.496094 19.4375 C 30.535156 19.4375 23.324219 21.996094 16.070312 27.042969 C 10.699219 30.777344 7.179688 34.648438 6.792969 35.082031 L 5.554688 36.476562 C 5.039062 37.0625 5.039062 37.9375 5.554688 38.519531 L 6.796875 39.921875 C 7.175781 40.347656 10.652344 44.191406 16.0625 47.957031 C 23.320312 53.003906 30.53125 55.5625 37.496094 55.5625 C 54.136719 55.5625 67.632812 40.558594 68.199219 39.917969 L 69.4375 38.523438 C 69.957031 37.9375 69.957031 37.0625 69.4375 36.476562 " fill-opacity="1" fill-rule="nonzero"/></g></svg>