<svg xmlns="http://www.w3.org/2000/svg" xmlns:xlink="http://www.w3.org/1999/xlink" width="100" zoomAndPan="magnify" viewBox="0 0 75 74.999997" height="100" preserveAspectRatio="xMidYMid meet" version="1.0"><defs><clipPath id="b25fde27ab"><path d="M 16 19 L 59 19 L 59 65.722656 L 16 65.722656 Z M 16 19 " clip-rule="nonzero"/></clipPath><clipPath id="fdf93e27cb"><path d="M 7.878906 9.472656 L 67.128906 9.472656 L 67.128906 40 L 7.878906 40 Z M 7.878906 9.472656 " clip-rule="nonzero"/></clipPath></defs><g clip-path="url(#b25fde27ab)"><path fill="#bebdbd" d="M 58.296875 37.964844 Z M 58.296875 37.964844 L 37.507812 19.550781 L 16.703125 37.972656 L 16.703125 64.292969 C 16.703125 64.972656 17.253906 65.515625 17.933594 65.515625 L 30.933594 65.515625 L 30.933594 53.976562 C 30.933594 53.296875 31.476562 52.746094 32.15625 52.746094 L 42.839844 52.746094 C 43.519531 52.746094 44.066406 53.296875 44.066406 53.976562 L 44.066406 65.515625 L 57.070312 65.515625 C 57.75 65.515625 58.296875 64.972656 58.296875 64.292969 L 58.296875 37.960938 Z M 16.703125 37.972656 Z M 16.703125 37.972656 " fill-opacity="1" fill-rule="nonzero"/></g><g clip-path="url(#fdf93e27cb)"><path fill="#bebdbd" d="M 37.382812 9.476562 L 7.878906 35.597656 L 10.988281 39.105469 L 37.503906 15.625 L 64.015625 39.105469 L 67.117188 35.597656 L 37.621094 9.476562 L 37.507812 9.609375 L 37.386719 9.476562 Z M 37.382812 9.476562 " fill-opacity="1" fill-rule="nonzero"/></g><path fill="#bebdbd" d="M 16.703125 13.234375 L 24.183594 13.234375 L 24.117188 17.664062 L 16.703125 24.363281 Z M 16.703125 13.234375 " fill-opacity="1" fill-rule="nonzero"/></svg>