<svg xmlns="http://www.w3.org/2000/svg" xmlns:xlink="http://www.w3.org/1999/xlink" width="100" zoomAndPan="magnify" viewBox="0 0 75 74.999997" height="100" preserveAspectRatio="xMidYMid meet" version="1.0"><defs><clipPath id="f6e183edd0"><path d="M 15 14 L 60 14 L 60 59 L 15 59 Z M 15 14 " clip-rule="nonzero"/></clipPath><clipPath id="26ebeb8962"><path d="M 37.496094 18.503906 C 27.710938 18.503906 19.777344 26.433594 19.777344 36.222656 C 19.777344 39.710938 20.785156 42.960938 22.523438 45.699219 C 22.878906 46.261719 22.964844 46.953125 22.753906 47.585938 L 21.0625 52.652344 L 26.132812 50.964844 C 26.761719 50.753906 27.457031 50.839844 28.019531 51.195312 C 30.757812 52.933594 34.003906 53.941406 37.496094 53.941406 C 47.28125 53.941406 55.214844 46.007812 55.214844 36.222656 C 55.214844 26.433594 47.28125 18.503906 37.496094 18.503906 Z M 15.347656 36.222656 C 15.347656 23.988281 25.265625 14.074219 37.496094 14.074219 C 49.726562 14.074219 59.644531 23.988281 59.644531 36.222656 C 59.644531 48.453125 49.726562 58.371094 37.496094 58.371094 C 33.523438 58.371094 29.792969 57.320312 26.566406 55.488281 L 18.261719 58.253906 C 17.46875 58.519531 16.589844 58.3125 15.996094 57.71875 C 15.402344 57.128906 15.195312 56.25 15.460938 55.453125 L 18.230469 47.152344 C 16.394531 43.925781 15.347656 40.191406 15.347656 36.222656 Z M 37.496094 22.933594 C 38.71875 22.933594 39.710938 23.921875 39.710938 25.148438 L 39.710938 34.007812 L 48.570312 34.007812 C 49.792969 34.007812 50.785156 34.996094 50.785156 36.222656 C 50.785156 37.445312 49.792969 38.4375 48.570312 38.4375 L 39.710938 38.4375 L 39.710938 47.296875 C 39.710938 48.519531 38.71875 49.511719 37.496094 49.511719 C 36.273438 49.511719 35.28125 48.519531 35.28125 47.296875 L 35.28125 38.4375 L 26.421875 38.4375 C 25.199219 38.4375 24.207031 37.445312 24.207031 36.222656 C 24.207031 34.996094 25.199219 34.007812 26.421875 34.007812 L 35.28125 34.007812 L 35.28125 25.148438 C 35.28125 23.921875 36.273438 22.933594 37.496094 22.933594 Z M 37.496094 22.933594 " clip-rule="evenodd"/></clipPath></defs><g clip-path="url(#f6e183edd0)"><g clip-path="url(#26ebeb8962)"><path fill="#bebdbd" d="M 15.195312 14.074219 L 15.195312 58.519531 L 59.644531 58.519531 L 59.644531 14.074219 Z M 15.195312 14.074219 " fill-opacity="1" fill-rule="nonzero"/></g></g></svg>