<svg width="130" height="130" viewBox="0 0 130 130" fill="none" xmlns="http://www.w3.org/2000/svg">
<g id="Untitled design (1) 4">
<g id="Clip path group">
<mask id="mask0_798_1041" style="mask-type:luminance" maskUnits="userSpaceOnUse" x="49" y="63" width="32" height="20">
<g id="b04637b269">
<path id="Vector" d="M49.7578 63.877H80.2115V82.6547H49.7578V63.877Z" fill="white"/>
</g>
</mask>
<g mask="url(#mask0_798_1041)">
<g id="Group">
<path id="Vector_2" d="M80.2198 64.8677C80.2198 64.4752 79.9013 64.1567 79.5088 64.1567C79.1164 64.1567 78.7979 64.4752 78.7979 64.8677C78.7979 65.3824 78.7509 65.7918 78.6988 66.2463C78.6844 66.3685 78.6706 66.4933 78.6449 66.7415C77.9252 73.7732 74.4608 78.1661 70.2215 80.0644C68.357 80.8995 66.3389 81.2543 64.3384 81.1409C62.3385 81.0268 60.3561 80.4437 58.5612 79.4024C54.3683 76.9699 51.1992 72.0241 51.1992 64.7021C51.1992 64.3097 50.8807 63.9912 50.4883 63.9912C50.0958 63.9912 49.7773 64.3097 49.7773 64.7021C49.7773 72.5958 53.2524 77.9617 57.8503 80.6293C59.8396 81.7835 62.0394 82.4304 64.2607 82.5565C66.4812 82.6825 68.7238 82.2875 70.7995 81.3584C75.4676 79.2676 79.2769 74.4891 80.0555 66.8857C80.0649 66.7923 80.0875 66.5955 80.1094 66.4074C80.1671 65.9008 80.2198 65.4451 80.2198 64.8677Z" fill="#156CBB"/>
</g>
</g>
</g>
<path id="Vector_3" d="M65.0001 39C68.0959 39 70.9095 40.2658 72.9489 42.3052C74.9883 44.3446 76.2541 47.1582 76.2541 50.254V64.6821C76.2541 67.7773 74.9883 70.591 72.9489 72.631C70.9095 74.6698 68.0959 75.9362 65.0001 75.9362C61.9043 75.9362 59.0907 74.6698 57.0513 72.631C55.0119 70.591 53.7461 67.7773 53.7461 64.6821V50.254C53.7461 47.1582 55.0119 44.3446 57.0513 42.3052C59.0907 40.2658 61.9043 39 65.0001 39ZM65.0001 40.4212C62.2968 40.4212 59.8386 41.5278 58.0562 43.3101C56.2745 45.0925 55.168 47.5507 55.168 50.254V64.6821C55.168 67.3855 56.2745 69.843 58.0562 71.6254C59.8386 73.4077 62.2968 74.5143 65.0001 74.5143C67.7034 74.5143 70.1616 73.4077 71.944 71.6254C73.7263 69.843 74.8329 67.3855 74.8329 64.6821V50.254C74.8329 47.5507 73.7263 45.0925 71.944 43.3101C70.1616 41.5278 67.7034 40.4212 65.0001 40.4212Z" fill="#156CBB"/>
<g id="Clip path group_2">
<mask id="mask1_798_1041" style="mask-type:luminance" maskUnits="userSpaceOnUse" x="64" y="81" width="2" height="10">
<g id="a02b5d77a3">
<path id="Vector_4" d="M64.1992 81.0498H65.8042V91.0004H64.1992V81.0498Z" fill="white"/>
</g>
</mask>
<g mask="url(#mask1_798_1041)">
<g id="Group_2">
<path id="Vector_5" d="M65.7109 81.8701C65.7109 81.4777 65.3925 81.1592 65 81.1592C64.6075 81.1592 64.2891 81.4777 64.2891 81.8701V90.2935C64.2891 90.686 64.6075 91.0045 65 91.0045C65.3925 91.0045 65.7109 90.686 65.7109 90.2935V81.8701Z" fill="#156CBB"/>
</g>
</g>
</g>
<path id="Vector_6" d="M54.9922 89.5684C54.5997 89.5684 54.2812 89.8868 54.2812 90.2793C54.2812 90.6718 54.5997 90.9902 54.9922 90.9902H75.01C75.4025 90.9902 75.721 90.6718 75.721 90.2793C75.721 89.8868 75.4025 89.5684 75.01 89.5684H54.9922Z" fill="#156CBB"/>
<path id="Vector_7" d="M54.457 56.7568C54.0646 56.7568 53.7461 57.0753 53.7461 57.4678C53.7461 57.8602 54.0646 58.1787 54.457 58.1787H75.5432C75.9362 58.1787 76.2541 57.8602 76.2541 57.4678C76.2541 57.0753 75.9362 56.7568 75.5432 56.7568H54.457Z" fill="#156CBB"/>
<path id="Vector_8" d="M70.2305 40.7347C70.2305 40.3423 69.912 40.0244 69.5195 40.0244C69.1271 40.0244 68.8086 40.3423 68.8086 40.7347V47.5413C68.8086 47.9338 69.1271 48.2522 69.5195 48.2522C69.912 48.2522 70.2305 47.9338 70.2305 47.5413V40.7347Z" fill="#156CBB"/>
<path id="Vector_9" d="M65.7109 39.7109C65.7109 39.3185 65.3925 39 65 39C64.6075 39 64.2891 39.3185 64.2891 39.7109V50.8101C64.2891 51.2025 64.6075 51.521 65 51.521C65.3925 51.521 65.7109 51.2025 65.7109 50.8101V39.7109Z" fill="#156CBB"/>
<path id="Vector_10" d="M61.1914 40.7354C61.1914 40.3423 60.8729 40.0244 60.4805 40.0244C60.088 40.0244 59.7695 40.3423 59.7695 40.7354V47.5463C59.7695 47.9388 60.088 48.2572 60.4805 48.2572C60.8729 48.2572 61.1914 47.9388 61.1914 47.5463V40.7354Z" fill="#156CBB"/>
</g>
</svg>
