<svg xmlns="http://www.w3.org/2000/svg" xmlns:xlink="http://www.w3.org/1999/xlink" width="100" zoomAndPan="magnify" viewBox="0 0 75 74.999997" height="100" preserveAspectRatio="xMidYMid meet" version="1.0"><defs><clipPath id="db19c1eadc"><path d="M 25 13.386719 L 50 13.386719 L 50 51 L 25 51 Z M 25 13.386719 " clip-rule="nonzero"/></clipPath><clipPath id="b5c03215cd"><path d="M 13.386719 43 L 61.386719 43 L 61.386719 61.386719 L 13.386719 61.386719 Z M 13.386719 43 " clip-rule="nonzero"/></clipPath></defs><g clip-path="url(#db19c1eadc)"><path fill="#bebdbd" d="M 39.621094 43.308594 L 39.621094 15.511719 C 39.621094 14.949219 39.40625 14.410156 39.003906 14.007812 C 38.601562 13.617188 38.0625 13.386719 37.5 13.386719 C 36.9375 13.386719 36.398438 13.617188 35.996094 14.007812 C 35.59375 14.410156 35.375 14.949219 35.375 15.511719 L 35.375 43.308594 C 35.375 43.308594 31.320312 39.253906 29.058594 36.992188 C 28.65625 36.589844 28.117188 36.375 27.554688 36.375 C 26.992188 36.375 26.453125 36.589844 26.050781 36.992188 C 25.226562 37.820312 25.226562 39.164062 26.050781 39.992188 L 36.074219 50.015625 C 36.453125 50.394531 36.960938 50.597656 37.5 50.597656 C 38.039062 50.597656 38.542969 50.394531 38.921875 50.015625 L 48.945312 39.992188 C 49.773438 39.164062 49.773438 37.820312 48.945312 36.992188 C 48.542969 36.589844 48.003906 36.375 47.441406 36.375 C 46.878906 36.375 46.339844 36.589844 45.9375 36.992188 C 43.664062 39.253906 39.621094 43.308594 39.621094 43.308594 Z M 39.621094 43.308594 " fill-opacity="1" fill-rule="evenodd"/></g><g clip-path="url(#b5c03215cd)"><path fill="#bebdbd" d="M 13.386719 57.589844 C 13.386719 58.660156 13.8125 59.679688 14.570312 60.425781 C 15.328125 61.183594 16.351562 61.609375 17.40625 61.609375 L 57.589844 61.609375 C 58.660156 61.609375 59.679688 61.183594 60.425781 60.425781 C 61.183594 59.667969 61.609375 58.648438 61.609375 57.589844 L 61.609375 45.433594 C 61.609375 44.261719 60.65625 43.308594 59.484375 43.308594 C 58.921875 43.308594 58.382812 43.539062 57.980469 43.929688 C 57.582031 44.332031 57.363281 44.871094 57.363281 45.433594 L 57.363281 55.363281 C 57.363281 56.476562 56.464844 57.375 55.351562 57.375 L 19.644531 57.375 C 18.53125 57.375 17.636719 56.476562 17.636719 55.363281 L 17.636719 45.433594 C 17.636719 44.871094 17.40625 44.332031 17.015625 43.929688 C 16.613281 43.527344 16.074219 43.308594 15.511719 43.308594 C 14.339844 43.308594 13.386719 44.261719 13.386719 45.433594 Z M 13.386719 57.589844 " fill-opacity="1" fill-rule="evenodd"/></g></svg>