<svg xmlns="http://www.w3.org/2000/svg" xmlns:xlink="http://www.w3.org/1999/xlink" width="100" zoomAndPan="magnify" viewBox="0 0 75 74.999997" height="100" preserveAspectRatio="xMidYMid meet" version="1.0"><defs><clipPath id="14f8b1f5ff"><path d="M 6.039062 12.882812 L 69 12.882812 L 69 62.382812 L 6.039062 62.382812 Z M 6.039062 12.882812 " clip-rule="nonzero"/></clipPath></defs><g clip-path="url(#14f8b1f5ff)"><path fill="#bebdbd" d="M 25.316406 26.136719 C 26.183594 20.1875 31.308594 15.617188 37.496094 15.617188 C 43.6875 15.617188 48.8125 20.1875 49.675781 26.136719 C 49.734375 26.546875 49.976562 26.90625 50.328125 27.117188 C 50.683594 27.328125 51.113281 27.367188 51.5 27.222656 C 52.675781 26.792969 53.945312 26.554688 55.273438 26.554688 C 61.316406 26.554688 66.214844 31.453125 66.214844 37.496094 C 66.214844 43.539062 61.316406 48.4375 55.273438 48.4375 L 45.703125 48.4375 C 44.945312 48.4375 44.335938 49.050781 44.335938 49.804688 C 44.335938 50.558594 44.945312 51.171875 45.703125 51.171875 L 55.273438 51.171875 C 62.828125 51.171875 68.949219 45.050781 68.949219 37.496094 C 68.949219 29.945312 62.828125 23.820312 55.273438 23.820312 C 54.175781 23.820312 53.101562 23.953125 52.074219 24.199219 C 50.417969 17.691406 44.519531 12.882812 37.496094 12.882812 C 30.476562 12.882812 24.578125 17.691406 22.921875 24.199219 C 21.890625 23.953125 20.820312 23.820312 19.71875 23.820312 C 12.167969 23.820312 6.042969 29.945312 6.042969 37.496094 C 6.042969 45.050781 12.167969 51.171875 19.71875 51.171875 L 29.292969 51.171875 C 30.046875 51.171875 30.660156 50.558594 30.660156 49.804688 C 30.660156 49.050781 30.046875 48.4375 29.292969 48.4375 L 19.71875 48.4375 C 13.675781 48.4375 8.78125 43.539062 8.78125 37.496094 C 8.78125 31.453125 13.675781 26.554688 19.71875 26.554688 C 21.046875 26.554688 22.320312 26.792969 23.492188 27.222656 C 23.878906 27.367188 24.3125 27.328125 24.664062 27.117188 C 25.019531 26.90625 25.257812 26.546875 25.316406 26.136719 Z M 46.667969 37.898438 L 38.464844 29.691406 C 37.929688 29.15625 37.0625 29.15625 36.53125 29.691406 L 28.324219 37.898438 C 27.792969 38.429688 27.792969 39.296875 28.324219 39.832031 C 28.859375 40.363281 29.726562 40.363281 30.257812 39.832031 L 36.128906 33.960938 L 36.128906 60.746094 C 36.128906 61.5 36.742188 62.113281 37.496094 62.113281 C 38.253906 62.113281 38.863281 61.5 38.863281 60.746094 L 38.863281 33.960938 L 44.734375 39.832031 C 45.269531 40.363281 46.136719 40.363281 46.667969 39.832031 C 47.203125 39.296875 47.203125 38.429688 46.667969 37.898438 Z M 46.667969 37.898438 " fill-opacity="1" fill-rule="evenodd"/></g></svg>