<svg xmlns="http://www.w3.org/2000/svg" xmlns:xlink="http://www.w3.org/1999/xlink" width="100" zoomAndPan="magnify" viewBox="0 0 75 74.999997" height="100" preserveAspectRatio="xMidYMid meet" version="1.0"><defs><clipPath id="ca38d9bba1"><path d="M 17.8125 11.25 L 57.5625 11.25 L 57.5625 63.75 L 17.8125 63.75 Z M 17.8125 11.25 " clip-rule="nonzero"/></clipPath></defs><g clip-path="url(#ca38d9bba1)"><path fill="#bebdbd" d="M 54.4375 17.359375 L 47.382812 17.359375 L 47.382812 14.117188 C 47.378906 13.746094 47.308594 13.386719 47.167969 13.042969 C 47.023438 12.703125 46.820312 12.398438 46.558594 12.136719 C 46.296875 11.871094 45.992188 11.667969 45.648438 11.527344 C 45.304688 11.382812 44.949219 11.3125 44.574219 11.3125 L 30.519531 11.3125 C 30.148438 11.3125 29.789062 11.382812 29.445312 11.527344 C 29.101562 11.667969 28.796875 11.871094 28.535156 12.136719 C 28.273438 12.398438 28.070312 12.703125 27.925781 13.042969 C 27.785156 13.386719 27.714844 13.746094 27.710938 14.117188 L 27.710938 17.359375 L 20.65625 17.359375 C 20.285156 17.359375 19.925781 17.429688 19.582031 17.570312 C 19.238281 17.714844 18.9375 17.917969 18.671875 18.179688 C 18.410156 18.445312 18.207031 18.746094 18.0625 19.089844 C 17.921875 19.433594 17.851562 19.792969 17.851562 20.164062 L 17.851562 22.222656 C 17.855469 22.433594 17.882812 22.640625 17.933594 22.847656 C 17.984375 23.050781 18.058594 23.25 18.152344 23.4375 C 18.246094 23.628906 18.359375 23.804688 18.492188 23.972656 C 18.621094 24.136719 18.769531 24.285156 18.933594 24.417969 C 19.097656 24.554688 19.277344 24.667969 19.464844 24.761719 C 19.652344 24.855469 19.851562 24.929688 20.054688 24.984375 C 20.261719 25.035156 20.46875 25.066406 20.679688 25.074219 C 20.890625 25.082031 21.101562 25.066406 21.308594 25.027344 L 22.964844 59.238281 C 22.980469 59.535156 23.023438 59.828125 23.09375 60.117188 C 23.164062 60.40625 23.257812 60.6875 23.382812 60.957031 C 23.507812 61.226562 23.65625 61.484375 23.828125 61.726562 C 24 61.96875 24.195312 62.191406 24.410156 62.398438 C 24.625 62.605469 24.859375 62.785156 25.109375 62.949219 C 25.359375 63.109375 25.625 63.246094 25.898438 63.355469 C 26.175781 63.464844 26.460938 63.546875 26.753906 63.605469 C 27.046875 63.660156 27.339844 63.6875 27.636719 63.6875 L 47.457031 63.6875 C 47.753906 63.6875 48.046875 63.660156 48.339844 63.605469 C 48.632812 63.546875 48.917969 63.464844 49.195312 63.355469 C 49.46875 63.242188 49.734375 63.109375 49.984375 62.949219 C 50.234375 62.785156 50.46875 62.605469 50.683594 62.398438 C 50.898438 62.191406 51.09375 61.96875 51.265625 61.726562 C 51.4375 61.484375 51.585938 61.226562 51.710938 60.957031 C 51.832031 60.6875 51.929688 60.40625 52 60.117188 C 52.070312 59.828125 52.113281 59.535156 52.125 59.238281 L 53.78125 25.027344 C 53.988281 25.066406 54.199219 25.082031 54.410156 25.074219 C 54.621094 25.066406 54.832031 25.035156 55.035156 24.984375 C 55.242188 24.929688 55.4375 24.855469 55.628906 24.761719 C 55.816406 24.667969 55.992188 24.554688 56.15625 24.417969 C 56.320312 24.285156 56.46875 24.136719 56.601562 23.972656 C 56.734375 23.804688 56.847656 23.628906 56.941406 23.4375 C 57.035156 23.25 57.105469 23.050781 57.15625 22.847656 C 57.207031 22.640625 57.238281 22.433594 57.242188 22.222656 L 57.242188 20.164062 C 57.242188 19.792969 57.171875 19.433594 57.027344 19.089844 C 56.886719 18.746094 56.683594 18.445312 56.421875 18.179688 C 56.15625 17.917969 55.855469 17.714844 55.511719 17.574219 C 55.167969 17.429688 54.808594 17.359375 54.4375 17.359375 Z M 29.582031 14.117188 C 29.582031 13.859375 29.675781 13.640625 29.859375 13.457031 C 30.039062 13.273438 30.261719 13.183594 30.519531 13.183594 L 44.574219 13.183594 C 44.832031 13.183594 45.054688 13.273438 45.234375 13.457031 C 45.417969 13.640625 45.511719 13.859375 45.511719 14.117188 L 45.511719 17.359375 L 29.582031 17.359375 Z M 50.257812 59.148438 C 50.242188 59.507812 50.15625 59.851562 50.007812 60.179688 C 49.859375 60.507812 49.652344 60.796875 49.390625 61.042969 C 49.132812 61.292969 48.832031 61.484375 48.5 61.617188 C 48.164062 61.75 47.816406 61.816406 47.457031 61.816406 L 27.636719 61.816406 C 27.277344 61.816406 26.929688 61.75 26.59375 61.617188 C 26.261719 61.484375 25.960938 61.292969 25.703125 61.042969 C 25.441406 60.796875 25.234375 60.507812 25.085938 60.179688 C 24.9375 59.851562 24.851562 59.507812 24.835938 59.148438 L 23.183594 25.027344 L 51.910156 25.027344 Z M 55.375 22.222656 C 55.371094 22.480469 55.28125 22.699219 55.097656 22.882812 C 54.917969 23.066406 54.695312 23.15625 54.4375 23.15625 L 20.65625 23.15625 C 20.398438 23.15625 20.175781 23.066406 19.996094 22.882812 C 19.8125 22.699219 19.722656 22.480469 19.71875 22.222656 L 19.71875 20.164062 C 19.722656 19.90625 19.8125 19.683594 19.996094 19.503906 C 20.175781 19.320312 20.398438 19.226562 20.65625 19.226562 L 54.4375 19.226562 C 54.695312 19.226562 54.917969 19.320312 55.097656 19.503906 C 55.28125 19.683594 55.371094 19.90625 55.375 20.164062 Z M 55.375 22.222656 " fill-opacity="1" fill-rule="nonzero"/></g><path fill="#bebdbd" d="M 37.546875 54.023438 C 37.804688 54.023438 38.027344 53.929688 38.207031 53.75 C 38.390625 53.566406 38.480469 53.34375 38.480469 53.085938 L 38.480469 33.757812 C 38.480469 33.5 38.390625 33.277344 38.207031 33.09375 C 38.027344 32.914062 37.804688 32.820312 37.546875 32.820312 C 37.289062 32.820312 37.066406 32.914062 36.886719 33.09375 C 36.703125 33.277344 36.613281 33.5 36.613281 33.757812 L 36.613281 53.085938 C 36.613281 53.34375 36.703125 53.566406 36.886719 53.75 C 37.066406 53.929688 37.289062 54.023438 37.546875 54.023438 Z M 37.546875 54.023438 " fill-opacity="1" fill-rule="nonzero"/><path fill="#bebdbd" d="M 45.027344 54.023438 C 45.289062 54.023438 45.507812 53.929688 45.691406 53.75 C 45.871094 53.566406 45.964844 53.34375 45.964844 53.085938 L 45.964844 33.757812 C 45.964844 33.5 45.871094 33.277344 45.691406 33.09375 C 45.507812 32.914062 45.289062 32.820312 45.027344 32.820312 C 44.769531 32.820312 44.550781 32.914062 44.367188 33.09375 C 44.183594 33.277344 44.09375 33.5 44.09375 33.757812 L 44.09375 53.085938 C 44.09375 53.34375 44.183594 53.566406 44.367188 53.75 C 44.550781 53.929688 44.769531 54.023438 45.027344 54.023438 Z M 45.027344 54.023438 " fill-opacity="1" fill-rule="nonzero"/><path fill="#bebdbd" d="M 30.066406 54.023438 C 30.324219 54.023438 30.542969 53.929688 30.726562 53.75 C 30.910156 53.566406 31 53.34375 31 53.085938 L 31 33.757812 C 31 33.5 30.910156 33.277344 30.726562 33.09375 C 30.542969 32.914062 30.324219 32.820312 30.066406 32.820312 C 29.804688 32.820312 29.585938 32.914062 29.402344 33.09375 C 29.21875 33.277344 29.128906 33.5 29.128906 33.757812 L 29.128906 53.085938 C 29.128906 53.34375 29.21875 53.566406 29.402344 53.75 C 29.585938 53.929688 29.804688 54.023438 30.066406 54.023438 Z M 30.066406 54.023438 " fill-opacity="1" fill-rule="nonzero"/></svg>