<svg xmlns="http://www.w3.org/2000/svg" xmlns:xlink="http://www.w3.org/1999/xlink" width="100" zoomAndPan="magnify" viewBox="0 0 75 74.999997" height="100" preserveAspectRatio="xMidYMid meet" version="1.0"><defs><clipPath id="c12740cb40"><path d="M 11.398438 10.425781 L 65.398438 10.425781 L 65.398438 64.425781 L 11.398438 64.425781 Z M 11.398438 10.425781 " clip-rule="nonzero"/></clipPath></defs><g clip-path="url(#c12740cb40)"><path fill="#bebdbd" d="M 33.339844 10.523438 C 21.167969 10.65625 11.410156 20.632812 11.546875 32.804688 C 11.679688 44.972656 21.652344 54.730469 33.824219 54.597656 C 38.320312 54.550781 42.691406 53.125 46.355469 50.519531 L 58.945312 63.105469 C 60.386719 64.527344 62.710938 64.511719 64.132812 63.070312 C 65.539062 61.640625 65.539062 59.347656 64.132812 57.917969 L 51.542969 45.332031 C 58.597656 35.414062 56.273438 21.652344 46.355469 14.597656 C 42.558594 11.898438 38 10.472656 33.339844 10.523438 Z M 33.074219 14.335938 C 43.125 14.054688 51.503906 21.976562 51.785156 32.027344 C 51.789062 32.203125 51.792969 32.382812 51.792969 32.558594 C 51.796875 42.613281 43.648438 50.765625 33.59375 50.773438 C 23.539062 50.777344 15.382812 42.628906 15.378906 32.574219 C 15.378906 32.570312 15.378906 32.5625 15.378906 32.558594 C 15.367188 22.691406 23.214844 14.613281 33.074219 14.335938 Z M 33.074219 14.335938 " fill-opacity="1" fill-rule="nonzero"/></g><path fill="#bebdbd" d="M 28.667969 19.054688 C 29.664062 18.699219 30.761719 19.21875 31.121094 20.214844 C 31.472656 21.203125 30.964844 22.292969 29.980469 22.660156 C 25.816406 24.175781 23.046875 28.128906 23.046875 32.558594 C 23.046875 33.617188 22.1875 34.476562 21.128906 34.476562 C 20.070312 34.476562 19.214844 33.617188 19.214844 32.558594 C 19.214844 26.519531 22.992188 21.121094 28.667969 19.054688 Z M 28.667969 19.054688 " fill-opacity="1" fill-rule="nonzero"/></svg>